<svg xmlns="http://www.w3.org/2000/svg" viewBox="0 0 197.88 197.38"><defs><style>.cls-1{fill:#ed462f;}.cls-2{fill:#fcd433;}.cls-3{fill:#fff;}.cls-4{fill:none;}</style></defs><title>nyumnyum</title><g id="Layer_1" data-name="Layer 1"><path class="cls-1" d="M183,102.15c0,46.48-38.43,84.16-85.82,84.16s-85.83-37.68-85.83-84.16S49.78,18,97.18,18c1.53,0,3.06,0,4.57.12l1.25,3.3L99.79,34.83l8.44,3.42v2.57s5.24,2.57,5.24,3.42l6.11,7.42,13.67,2.85,1.17,1.72,6.4-1.43,2,1.43,14.26-1.43,2.32-4,4.74-1.26A82.81,82.81,0,0,1,183,102.15Z"/><path class="cls-2" d="M72.24,110.94s-5,5.43-12.39,0S49,92.33,48,89.23s-2.37-2.85-3.16-1-5.27,17.07-6.33,19.91-4.48,3.36-6.59.78S23.73,96,23.73,91.81s3.16-6.2,5.8-4.91c0,0,4.22,13.44,5.8,15.51,0,0,.53-15.77,5.53-20.16s10.55-3.36,12.92,1.29S61.69,110.69,72.24,110.94Z"/><path class="cls-3" d="M83.05,149.21s-5,5.43-12.39,0-10.81-18.62-11.87-21.72-2.37-2.84-3.16-1-5.27,17.06-6.33,19.9-4.48,3.36-6.59.78-8.17-12.93-8.17-17.06,3.16-6.21,5.8-4.92c0,0,4.22,13.45,5.8,15.52,0,0,.53-15.77,5.54-20.17s10.54-3.36,12.91,1.29S72.5,149,83.05,149.21Z"/><path class="cls-2" d="M70.66,89.74s1.58-3.87-2.11-4.39-6.59,2.58-5.8,7.5,3.16,11.63,7.38,13.7,7.65,1,8.7-.78a24.34,24.34,0,0,0,1.85-5.43l.53,4.4s-7.65,5.17-7.39,11.63a15.33,15.33,0,0,0,1.06,5.43S78.57,119,81.21,119c0,0-1.59-7,1.58-7.76l1.58,6.72s4.48-3.62,6.33-3.87l-1.58-5.69s3.42-3.36,15.55-7,24-4.66,24-4.91-.8-5.69-9.5-5.17a60.7,60.7,0,0,0-21.62,5.42,79.87,79.87,0,0,0-9.75,6s-4-17.84-5-20.17-2.9-2.06-4.22-1.29-2.9,1.55-2.64,2.85S79.1,95.69,79.1,95.69s-1.59,6-2.9,7-3.7-1-4.75-4.91A28.3,28.3,0,0,1,70.66,89.74Z"/><path class="cls-2" d="M99.66,86.12s-1.58,2.59-2.9,2.85-2.63-1.29-3.69-4.66a52.37,52.37,0,0,1-1.58-7s-4.22-1-5.54,2.07S87,88.71,89.12,92.07s6.06,4.65,8.17,3.1,4.48-5.68,4.48-5.68,3.43,3.36,5,2.58,1.06-1.81,1.06-1.81S106,79.14,105.73,76s-1.59-4.39-3.17-4.14-4.74,2.33-4.74,2.33S99.4,84.57,99.66,86.12Z"/><path class="cls-3" d="M111.26,124.13s-1.58,2.58-2.9,2.84-2.63-1.29-3.69-4.65a52.37,52.37,0,0,1-1.58-7s-4.22-1-5.54,2.07,1.06,9.3,3.17,12.67,6.06,4.65,8.17,3.1,4.48-5.69,4.48-5.69,3.43,3.36,5,2.59,1.06-1.81,1.06-1.81-1.85-11.12-2.11-14.22-1.58-4.4-3.17-4.14-4.74,2.33-4.74,2.33S111,122.58,111.26,124.13Z"/><path class="cls-2" d="M114.69,71.9s.27-1-1.32-1-5-1-5.8,2.07,2.64,12.67,5.28,14.74,6.06-.52,6.85-2.85,2.9-6.2,3.17-7.75,1.58-1,1.84.25.53,5.43,1.32,6.47,3.69.77,4.75,0,1.58-4.91,1.58-4.91S132.62,91,137.63,96s9.23,3.88,9.76,2.33,0-2.07,0-2.07-7.65-8-8.7-17.32,0-12.41-.27-14S136.58,62.6,135,62.6s-3.69,2.84-4.48,5.43-1,4.65-1.84,3.87-1.59-5.42-2.64-5.68a3,3,0,0,0-4,2.32c-.79,2.85-3.16,10.09-3.95,12.16s-1.85.51-2.37-1A63.37,63.37,0,0,1,114.69,71.9Z"/><path class="cls-3" d="M126.82,110.43s.26-1-1.32-1-5-1-5.8,2.07,2.64,12.67,5.27,14.74,6.07-.52,6.86-2.85,2.9-6.2,3.16-7.75,1.59-1,1.85.26.53,5.43,1.32,6.46,3.69.78,4.74,0,1.59-4.91,1.59-4.91.26,12.15,5.27,17.06,9.23,3.88,9.75,2.33,0-2.07,0-2.07-7.64-8-8.7-17.32,0-12.41-.26-14-1.85-2.33-3.43-2.33-3.69,2.84-4.48,5.43-1,4.65-1.85,3.88-1.58-5.43-2.63-5.69a3,3,0,0,0-4,2.33c-.79,2.84-3.16,10.08-3.95,12.15s-1.85.51-2.38-1A64.86,64.86,0,0,1,126.82,110.43Z"/><path class="cls-3" d="M121.42,132.79c-14.24.78-22.42,6.46-22.42,6.46s-4-14.22-4.74-17.32-1.85-2.84-2.11-2.84-5,1.55-5,3.1S90.3,134.6,90.3,134.6A40.54,40.54,0,0,1,88.19,140c-.79,1.29-2.9,2.33-4-.78s-1.85-12.66-2.11-14S81.34,124,80.55,124s-5.8,1.29-5.8,5.69,4.74,16.29,8.7,16.8,7.91-2.58,8.7-6.46l1,4.14s-11.07,8-10.54,17.06,15,10.34,18.45,2.07,1.06-17.84,1.06-17.84,11.6-7.5,23.2-7.24,12.92,1,13.18.52S135.65,132,121.42,132.79ZM90,159.42c-.53-4.4,5.8-9,5.8-9a24.89,24.89,0,0,1,1,7.24C96.89,161.75,90.57,163.81,90,159.42Z"/><path class="cls-4" d="M97.16,156.32c0,4.13-6.33,6.2-6.86,1.81s5.8-9,5.8-9A24.67,24.67,0,0,1,97.16,156.32Z"/><path class="cls-2" d="M29,69.06S43.5,39.59,69.08,30.28c0,0,6.06-2.58,9,1s-3.43,5.95-7.12,7.76S48,45.53,29,69.06Z"/><ellipse class="cls-2" cx="173.36" cy="110.56" rx="4.48" ry="4.4"/><path class="cls-1" d="M131.25,21.89s-7.38-2.07-7.38,0S122,26.54,122,26.54l-2.37,6.21,4.48,2.07h5.28l3.42-3.11,2.11-3.87Z"/><path class="cls-1" d="M154.45,31.71l-6.85-1.29s-2.9,4.4-1.85,4.4A20.39,20.39,0,0,1,150,36.11l1.58,1.81,2.9-1.55Z"/><polygon class="cls-1" points="139.69 40.76 134.94 42.57 134.94 45.68 134.94 48 141.27 48 141.27 43.09 139.69 40.76"/></g></svg>